<svg xmlns="http://www.w3.org/2000/svg" fill="none" viewBox="0 0 48 48" height="48" width="48"><path fill="#03a63c" d="M4.38753 11.1919C4.56821 9.40944 5.79277 8.05252 7.56249 7.77317C9.923 7.40056 14.0718 7 21 7C27.9282 7 32.077 7.40056 34.4375 7.77317C36.2072 8.05251 37.4318 9.40944 37.6125 11.1919C37.8089 13.1303 38 16.2391 38 21C38 25.7609 37.8089 28.8697 37.6125 30.8081C37.4318 32.5906 36.2072 33.9475 34.4375 34.2268C32.077 34.5994 27.9282 35 21 35C14.0718 35 9.92301 34.5994 7.56249 34.2268C5.79278 33.9475 4.56821 32.5906 4.38753 30.8081C4.19105 28.8697 4 25.7609 4 21C4 16.2391 4.19105 13.1303 4.38753 11.1919Z"></path><path fill="#b8f2b6" d="M43.5691 15.2898C43.3833 13.5103 42.1664 12.1476 40.4011 11.8565C37.9335 11.4496 33.5082 11 26 11C18.4918 11 14.0665 11.4496 11.5989 11.8565C9.83361 12.1476 8.61668 13.5103 8.43093 15.2898C8.21586 17.3502 8 20.7307 8 26C8 31.2693 8.21586 34.6498 8.43093 36.7102C8.61668 38.4897 9.83361 39.8524 11.5989 40.1435C14.0665 40.5504 18.4918 41 26 41C33.5082 41 37.9335 40.5504 40.4011 40.1435C42.1664 39.8524 43.3833 38.4897 43.5691 36.7102C43.7841 34.6498 44 31.2693 44 26C44 20.7307 43.7841 17.3502 43.5691 15.2898Z"></path><path fill="#03a63c" d="M21.2605 22.4998C21.4352 21.3841 22.3707 20.7451 23.3782 21.0967C24.2041 21.3849 25.3684 21.865 26.956 22.665C28.2673 23.3259 29.2899 23.9139 30.0715 24.4053C31.3095 25.1835 31.3095 26.8165 30.0715 27.5947C29.2899 28.0861 28.2673 28.6741 26.956 29.335C25.3684 30.135 24.2041 30.6151 23.3782 30.9033C22.3707 31.2549 21.4352 30.6159 21.2605 29.5002C21.1215 28.6135 21 27.4293 21 26C21 24.5707 21.1215 23.3865 21.2605 22.4998Z"></path><path fill="#03a63c" d="M14.9848 33.1007C14.9628 32.5257 14.5903 32.0873 14.0169 32.0382C13.7536 32.0157 13.4197 32 13 32C12.5803 32 12.2464 32.0157 11.9831 32.0382C11.4097 32.0873 11.0372 32.5257 11.0152 33.1007C11.0061 33.3387 11 33.6345 11 34C11 34.3655 11.0061 34.6613 11.0152 34.8993C11.0372 35.4743 11.4097 35.9127 11.9831 35.9618C12.2464 35.9843 12.5803 36 13 36C13.4197 36 13.7536 35.9843 14.0169 35.9618C14.5903 35.9127 14.9628 35.4743 14.9848 34.8993C14.9939 34.6613 15 34.3655 15 34C15 33.6345 14.9939 33.3387 14.9848 33.1007Z"></path><path fill="#03a63c" d="M14.9848 25.1007C14.9628 24.5257 14.5903 24.0873 14.0169 24.0382C13.7536 24.0157 13.4197 24 13 24C12.5803 24 12.2464 24.0157 11.9831 24.0382C11.4097 24.0873 11.0372 24.5257 11.0152 25.1007C11.0061 25.3387 11 25.6345 11 26C11 26.3655 11.0061 26.6613 11.0152 26.8993C11.0372 27.4743 11.4097 27.9127 11.9831 27.9618C12.2464 27.9843 12.5803 28 13 28C13.4197 28 13.7536 27.9843 14.0169 27.9618C14.5903 27.9127 14.9628 27.4743 14.9848 26.8993C14.9939 26.6613 15 26.3655 15 26C15 25.6345 14.9939 25.3387 14.9848 25.1007Z"></path><path fill="#03a63c" d="M14.9848 17.1007C14.9628 16.5257 14.5903 16.0873 14.0169 16.0382C13.7536 16.0157 13.4197 16 13 16C12.5803 16 12.2464 16.0157 11.9831 16.0382C11.4097 16.0873 11.0372 16.5257 11.0152 17.1007C11.0061 17.3387 11 17.6345 11 18C11 18.3655 11.0061 18.6613 11.0152 18.8993C11.0372 19.4743 11.4097 19.9127 11.9831 19.9618C12.2464 19.9843 12.5803 20 13 20C13.4197 20 13.7536 19.9843 14.0169 19.9618C14.5903 19.9127 14.9628 19.4743 14.9848 18.8993C14.9939 18.6613 15 18.3655 15 18C15 17.6345 14.9939 17.3387 14.9848 17.1007Z"></path><g><path fill="#03a63c" d="M37.0152 33.1007C37.0372 32.5257 37.4097 32.0873 37.9831 32.0382C38.2464 32.0157 38.5803 32 39 32C39.4197 32 39.7536 32.0157 40.0169 32.0382C40.5903 32.0873 40.9628 32.5257 40.9848 33.1007C40.9939 33.3387 41 33.6345 41 34C41 34.3655 40.9939 34.6613 40.9848 34.8993C40.9628 35.4743 40.5903 35.9127 40.0169 35.9618C39.7536 35.9843 39.4197 36 39 36C38.5803 36 38.2464 35.9843 37.9831 35.9618C37.4097 35.9127 37.0372 35.4743 37.0152 34.8993C37.0061 34.6613 37 34.3655 37 34C37 33.6345 37.0061 33.3387 37.0152 33.1007Z"></path><path fill="#03a63c" d="M37.0152 25.1007C37.0372 24.5257 37.4097 24.0873 37.9831 24.0382C38.2464 24.0157 38.5803 24 39 24C39.4197 24 39.7536 24.0157 40.0169 24.0382C40.5903 24.0873 40.9628 24.5257 40.9848 25.1007C40.9939 25.3387 41 25.6345 41 26C41 26.3655 40.9939 26.6613 40.9848 26.8993C40.9628 27.4743 40.5903 27.9127 40.0169 27.9618C39.7536 27.9843 39.4197 28 39 28C38.5803 28 38.2464 27.9843 37.9831 27.9618C37.4097 27.9127 37.0372 27.4743 37.0152 26.8993C37.0061 26.6613 37 26.3655 37 26C37 25.6345 37.0061 25.3387 37.0152 25.1007Z"></path><path fill="#03a63c" d="M37.0152 17.1007C37.0372 16.5257 37.4097 16.0873 37.9831 16.0382C38.2464 16.0157 38.5803 16 39 16C39.4197 16 39.7536 16.0157 40.0169 16.0382C40.5903 16.0873 40.9628 16.5257 40.9848 17.1007C40.9939 17.3387 41 17.6345 41 18C41 18.3655 40.9939 18.6613 40.9848 18.8993C40.9628 19.4743 40.5903 19.9127 40.0169 19.9618C39.7536 19.9843 39.4197 20 39 20C38.5803 20 38.2464 19.9843 37.9831 19.9618C37.4097 19.9127 37.0372 19.4743 37.0152 18.8993C37.0061 18.6613 37 18.3655 37 18C37 17.6345 37.0061 17.3387 37.0152 17.1007Z"></path></g></svg>